<?xml version="1.0" encoding="UTF-8" standalone="no"?> <svg width="144.286mm" height="43.0389mm"  viewBox="0 0 409.509 122"  xmlns="http://www.w3.org/2000/svg" xmlns:xlink="http://www.w3.org/1999/xlink"  version="1.2" baseProfile="tiny"> <title>Generated with ETE http://etetoolkit.org</title> <desc>Generated with ETE http://etetoolkit.org</desc> <defs> </defs> <g fill="none" stroke="black" stroke-width="1" fill-rule="evenodd" stroke-linecap="square" stroke-linejoin="bevel" >      <g fill="none" stroke="none" transform="matrix(1,0,0,1,0,0)" font-family="MS Shell Dlg 2" font-size="7.8" font-weight="400" font-style="normal"  > <rect x="0" y="0" width="409.509" height="122"/> </g>      <g fill="none" stroke="none" transform="matrix(1,0,0,1,1,1)" font-family="MS Shell Dlg 2" font-size="7.8" font-weight="400" font-style="normal"  > <rect x="0" y="0" width="407.509" height="70"/> </g>                                          <g fill="none" stroke="#000000" stroke-opacity="1" stroke-width="1" stroke-linecap="butt" stroke-linejoin="bevel" transform="matrix(1,0,0,1,1,1)" font-family="MS Shell Dlg 2" font-size="7.8" font-weight="400" font-style="normal"  > <polyline fill="none" vector-effect="non-scaling-stroke" points="3,14 3,45.5 " /> </g>                  <g fill="#424874" fill-opacity="1" stroke="#424874" stroke-opacity="1" stroke-width="1" stroke-linecap="square" stroke-linejoin="bevel" transform="matrix(1,0,0,1,1,29.25)" font-family="MS Shell Dlg 2" font-size="7.8" font-weight="400" font-style="normal"  > <circle cx="1.5" cy="1.5" r="1.5"/> </g>                  <g fill="none" stroke="#000000" stroke-opacity="1" stroke-width="1" stroke-linecap="butt" stroke-linejoin="bevel" transform="matrix(1,0,0,1,4,1)" font-family="MS Shell Dlg 2" font-size="7.8" font-weight="400" font-style="normal"  > <polyline fill="none" vector-effect="non-scaling-stroke" points="74.6316,7 74.6316,21 " /> </g>            <g fill="none" stroke="#000000" stroke-opacity="1" stroke-width="1" stroke-linecap="butt" stroke-linejoin="bevel" transform="matrix(1,0,0,1,4,1)" font-family="MS Shell Dlg 2" font-size="7.8" font-weight="400" font-style="normal"  > <polyline fill="none" vector-effect="non-scaling-stroke" points="0,14 71.6316,14 " /> </g>      <g fill="#424874" fill-opacity="1" stroke="#424874" stroke-opacity="1" stroke-width="1" stroke-linecap="square" stroke-linejoin="bevel" transform="matrix(1,0,0,1,75.6316,13.5)" font-family="MS Shell Dlg 2" font-size="7.8" font-weight="400" font-style="normal"  > <circle cx="1.5" cy="1.5" r="1.5"/> </g>                        <g fill="none" stroke="#000000" stroke-opacity="1" stroke-width="1" stroke-linecap="butt" stroke-linejoin="bevel" transform="matrix(1,0,0,1,78.6316,1)" font-family="MS Shell Dlg 2" font-size="7.8" font-weight="400" font-style="normal"  > <polyline fill="none" vector-effect="non-scaling-stroke" points="0,7 108.368,7 " /> </g>      <g fill="#424874" fill-opacity="1" stroke="#424874" stroke-opacity="1" stroke-width="1" stroke-linecap="square" stroke-linejoin="bevel" transform="matrix(1,0,0,1,187,6.5)" font-family="MS Shell Dlg 2" font-size="7.8" font-weight="400" font-style="normal"  > <circle cx="1.5" cy="1.5" r="1.5"/> </g>          <g fill="none" stroke="#000000" stroke-opacity="1" stroke-width="1" stroke-linecap="square" stroke-linejoin="bevel" transform="matrix(1,0,0,1,190,1)" font-family="Verdana" font-size="7pt" font-weight="400" font-style="normal"  > <text fill="#000000" fill-opacity="1" stroke="none" xml:space="preserve" x="0" y="12" font-family="Verdana" font-size="7pt" font-weight="400" font-style="normal"   >sp|Q8NGA6|O10H5_HUMAN|9606</text> </g>                    <g fill="none" stroke="#000000" stroke-opacity="1" stroke-width="1" stroke-linecap="butt" stroke-linejoin="bevel" transform="matrix(1,0,0,1,78.6316,15)" font-family="MS Shell Dlg 2" font-size="7.8" font-weight="400" font-style="normal"  > <polyline fill="none" vector-effect="non-scaling-stroke" points="0,7 21.2801,7 " /> </g>      <g fill="#424874" fill-opacity="1" stroke="#424874" stroke-opacity="1" stroke-width="1" stroke-linecap="square" stroke-linejoin="bevel" transform="matrix(1,0,0,1,99.9117,20.5)" font-family="MS Shell Dlg 2" font-size="7.8" font-weight="400" font-style="normal"  > <circle cx="1.5" cy="1.5" r="1.5"/> </g>          <g fill="none" stroke="#000000" stroke-opacity="1" stroke-width="1" stroke-linecap="square" stroke-linejoin="bevel" transform="matrix(1,0,0,1,102.912,15)" font-family="Verdana" font-size="7pt" font-weight="400" font-style="normal"  > <text fill="#000000" fill-opacity="1" stroke="none" xml:space="preserve" x="0" y="12" font-family="Verdana" font-size="7pt" font-weight="400" font-style="normal"   >tr|G1SC05|G1SC05_NOMLE|61853</text> </g>              <g fill="none" stroke="#000000" stroke-opacity="1" stroke-width="1" stroke-linecap="butt" stroke-linejoin="bevel" transform="matrix(1,0,0,1,4,29)" font-family="MS Shell Dlg 2" font-size="7.8" font-weight="400" font-style="normal"  > <polyline fill="none" vector-effect="non-scaling-stroke" points="74.6316,7 74.6316,28 " /> </g>            <g fill="none" stroke="#000000" stroke-opacity="1" stroke-width="1" stroke-linecap="butt" stroke-linejoin="bevel" transform="matrix(1,0,0,1,4,29)" font-family="MS Shell Dlg 2" font-size="7.8" font-weight="400" font-style="normal"  > <polyline fill="none" vector-effect="non-scaling-stroke" points="0,17.5 71.6316,17.5 " /> </g>      <g fill="#424874" fill-opacity="1" stroke="#424874" stroke-opacity="1" stroke-width="1" stroke-linecap="square" stroke-linejoin="bevel" transform="matrix(1,0,0,1,75.6316,45)" font-family="MS Shell Dlg 2" font-size="7.8" font-weight="400" font-style="normal"  > <circle cx="1.5" cy="1.5" r="1.5"/> </g>                        <g fill="none" stroke="#000000" stroke-opacity="1" stroke-width="1" stroke-linecap="butt" stroke-linejoin="bevel" transform="matrix(1,0,0,1,78.6316,29)" font-family="MS Shell Dlg 2" font-size="7.8" font-weight="400" font-style="normal"  > <polyline fill="none" vector-effect="non-scaling-stroke" points="0,7 50.8774,7 " /> </g>      <g fill="#424874" fill-opacity="1" stroke="#424874" stroke-opacity="1" stroke-width="1" stroke-linecap="square" stroke-linejoin="bevel" transform="matrix(1,0,0,1,129.509,34.5)" font-family="MS Shell Dlg 2" font-size="7.8" font-weight="400" font-style="normal"  > <circle cx="1.5" cy="1.5" r="1.5"/> </g>          <g fill="none" stroke="#000000" stroke-opacity="1" stroke-width="1" stroke-linecap="square" stroke-linejoin="bevel" transform="matrix(1,0,0,1,132.509,29)" font-family="Verdana" font-size="7pt" font-weight="400" font-style="normal"  > <text fill="#000000" fill-opacity="1" stroke="none" xml:space="preserve" x="0" y="12" font-family="Verdana" font-size="7pt" font-weight="400" font-style="normal"   >tr|A0A0D9SAZ4|A0A0D9SAZ4_CHLSB|60711</text> </g>              <g fill="none" stroke="#000000" stroke-opacity="1" stroke-width="1" stroke-linecap="butt" stroke-linejoin="bevel" transform="matrix(1,0,0,1,78.6316,43)" font-family="MS Shell Dlg 2" font-size="7.8" font-weight="400" font-style="normal"  > <polyline fill="none" vector-effect="non-scaling-stroke" points="14.2627,7 14.2627,21 " /> </g>            <g fill="none" stroke="#000000" stroke-opacity="1" stroke-width="1" stroke-linecap="butt" stroke-linejoin="bevel" transform="matrix(1,0,0,1,78.6316,43)" font-family="MS Shell Dlg 2" font-size="7.8" font-weight="400" font-style="normal"  > <polyline fill="none" vector-effect="non-scaling-stroke" points="0,14 11.2627,14 " /> </g>      <g fill="#424874" fill-opacity="1" stroke="#424874" stroke-opacity="1" stroke-width="1" stroke-linecap="square" stroke-linejoin="bevel" transform="matrix(1,0,0,1,89.8943,55.5)" font-family="MS Shell Dlg 2" font-size="7.8" font-weight="400" font-style="normal"  > <circle cx="1.5" cy="1.5" r="1.5"/> </g>                  <g fill="none" stroke="#808080" stroke-opacity="1" stroke-dasharray="1,2" stroke-dashoffset="0" stroke-width="1" stroke-linecap="butt" stroke-linejoin="bevel" transform="matrix(1,0,0,1,92.8943,43)" font-family="MS Shell Dlg 2" font-size="7.8" font-weight="400" font-style="normal"  > <polyline fill="none" vector-effect="non-scaling-stroke" points="0.00322621,7 0.00322621,7 " /> </g>      <g fill="none" stroke="#000000" stroke-opacity="1" stroke-width="1" stroke-linecap="butt" stroke-linejoin="bevel" transform="matrix(1,0,0,1,92.8943,43)" font-family="MS Shell Dlg 2" font-size="7.8" font-weight="400" font-style="normal"  > <polyline fill="none" vector-effect="non-scaling-stroke" points="0,7 0.00322621,7 " /> </g>      <g fill="#424874" fill-opacity="1" stroke="#424874" stroke-opacity="1" stroke-width="1" stroke-linecap="square" stroke-linejoin="bevel" transform="matrix(1,0,0,1,92.8975,48.5)" font-family="MS Shell Dlg 2" font-size="7.8" font-weight="400" font-style="normal"  > <circle cx="1.5" cy="1.5" r="1.5"/> </g>          <g fill="none" stroke="#000000" stroke-opacity="1" stroke-width="1" stroke-linecap="square" stroke-linejoin="bevel" transform="matrix(1,0,0,1,95.8975,43)" font-family="Verdana" font-size="7pt" font-weight="400" font-style="normal"  > <text fill="#000000" fill-opacity="1" stroke="none" xml:space="preserve" x="0" y="12" font-family="Verdana" font-size="7pt" font-weight="400" font-style="normal"   >tr|A0A7N9CY28|A0A7N9CY28_MACFA|9541</text> </g>                    <g fill="none" stroke="#000000" stroke-opacity="1" stroke-width="1" stroke-linecap="butt" stroke-linejoin="bevel" transform="matrix(1,0,0,1,92.8943,57)" font-family="MS Shell Dlg 2" font-size="7.8" font-weight="400" font-style="normal"  > <polyline fill="none" vector-effect="non-scaling-stroke" points="0,7 10.1497,7 " /> </g>      <g fill="#424874" fill-opacity="1" stroke="#424874" stroke-opacity="1" stroke-width="1" stroke-linecap="square" stroke-linejoin="bevel" transform="matrix(1,0,0,1,103.044,62.5)" font-family="MS Shell Dlg 2" font-size="7.8" font-weight="400" font-style="normal"  > <circle cx="1.5" cy="1.5" r="1.5"/> </g>          <g fill="none" stroke="#000000" stroke-opacity="1" stroke-width="1" stroke-linecap="square" stroke-linejoin="bevel" transform="matrix(1,0,0,1,106.044,57)" font-family="Verdana" font-size="7pt" font-weight="400" font-style="normal"  > <text fill="#000000" fill-opacity="1" stroke="none" xml:space="preserve" x="0" y="12" font-family="Verdana" font-size="7pt" font-weight="400" font-style="normal"   >tr|G7NMN2|G7NMN2_MACMU|9544</text> </g>                                                  <g fill="none" stroke="#000000" stroke-opacity="1" stroke-width="1" stroke-linecap="square" stroke-linejoin="bevel" transform="matrix(1,0,0,1,1,72)" font-family="MS Shell Dlg 2" font-size="7.8" font-weight="400" font-style="normal"  > <polyline fill="none" vector-effect="none" points="0,5 50,5 " /> </g>      <g fill="none" stroke="#000000" stroke-opacity="1" stroke-width="1" stroke-linecap="square" stroke-linejoin="bevel" transform="matrix(1,0,0,1,1,72)" font-family="MS Shell Dlg 2" font-size="7.8" font-weight="400" font-style="normal"  > <polyline fill="none" vector-effect="none" points="0,0 0,10 " /> </g>      <g fill="none" stroke="#000000" stroke-opacity="1" stroke-width="1" stroke-linecap="square" stroke-linejoin="bevel" transform="matrix(1,0,0,1,1,72)" font-family="MS Shell Dlg 2" font-size="7.8" font-weight="400" font-style="normal"  > <polyline fill="none" vector-effect="none" points="50,0 50,10 " /> </g>      <g fill="none" stroke="#000000" stroke-opacity="1" stroke-width="1" stroke-linecap="square" stroke-linejoin="bevel" transform="matrix(1,0,0,1,1,82)" font-family="MS Shell Dlg 2" font-size="7.8" font-weight="400" font-style="normal"  > <text fill="#000000" fill-opacity="1" stroke="none" xml:space="preserve" x="0" y="13" font-family="MS Shell Dlg 2" font-size="7.8" font-weight="400" font-style="normal"   >0.0154981</text> </g>     </g> </svg> 