<?xml version="1.0" encoding="UTF-8" standalone="no"?> <svg width="165.453mm" height="87.4889mm"  viewBox="0 0 470 248"  xmlns="http://www.w3.org/2000/svg" xmlns:xlink="http://www.w3.org/1999/xlink"  version="1.2" baseProfile="tiny"> <title>Generated with ETE http://etetoolkit.org</title> <desc>Generated with ETE http://etetoolkit.org</desc> <defs> </defs> <g fill="none" stroke="black" stroke-width="1" fill-rule="evenodd" stroke-linecap="square" stroke-linejoin="bevel" >      <g fill="none" stroke="none" transform="matrix(1,0,0,1,0,0)" font-family="MS Shell Dlg 2" font-size="7.8" font-weight="400" font-style="normal"  > <rect x="0" y="0" width="470" height="248"/> </g>      <g fill="none" stroke="none" transform="matrix(1,0,0,1,1,1)" font-family="MS Shell Dlg 2" font-size="7.8" font-weight="400" font-style="normal"  > <rect x="0" y="0" width="468" height="196"/> </g>                                                                                                                  <g fill="none" stroke="#000000" stroke-opacity="1" stroke-width="1" stroke-linecap="butt" stroke-linejoin="bevel" transform="matrix(1,0,0,1,1,1)" font-family="MS Shell Dlg 2" font-size="7.8" font-weight="400" font-style="normal"  > <polyline fill="none" vector-effect="non-scaling-stroke" points="3,48.125 3,160.125 " /> </g>                  <g fill="#424874" fill-opacity="1" stroke="#424874" stroke-opacity="1" stroke-width="1" stroke-linecap="square" stroke-linejoin="bevel" transform="matrix(1,0,0,1,1,103.625)" font-family="MS Shell Dlg 2" font-size="7.8" font-weight="400" font-style="normal"  > <circle cx="1.5" cy="1.5" r="1.5"/> </g>                  <g fill="none" stroke="#000000" stroke-opacity="1" stroke-width="1" stroke-linecap="butt" stroke-linejoin="bevel" transform="matrix(1,0,0,1,4,1)" font-family="MS Shell Dlg 2" font-size="7.8" font-weight="400" font-style="normal"  > <polyline fill="none" vector-effect="non-scaling-stroke" points="46.5868,33.25 46.5868,63 " /> </g>            <g fill="none" stroke="#000000" stroke-opacity="1" stroke-width="1" stroke-linecap="butt" stroke-linejoin="bevel" transform="matrix(1,0,0,1,4,1)" font-family="MS Shell Dlg 2" font-size="7.8" font-weight="400" font-style="normal"  > <polyline fill="none" vector-effect="non-scaling-stroke" points="0,48.125 43.5868,48.125 " /> </g>      <g fill="#424874" fill-opacity="1" stroke="#424874" stroke-opacity="1" stroke-width="1" stroke-linecap="square" stroke-linejoin="bevel" transform="matrix(1,0,0,1,47.5868,47.625)" font-family="MS Shell Dlg 2" font-size="7.8" font-weight="400" font-style="normal"  > <circle cx="1.5" cy="1.5" r="1.5"/> </g>                  <g fill="none" stroke="#000000" stroke-opacity="1" stroke-width="1" stroke-linecap="butt" stroke-linejoin="bevel" transform="matrix(1,0,0,1,50.5868,1)" font-family="MS Shell Dlg 2" font-size="7.8" font-weight="400" font-style="normal"  > <polyline fill="none" vector-effect="non-scaling-stroke" points="22.0543,17.5 22.0543,49 " /> </g>            <g fill="none" stroke="#000000" stroke-opacity="1" stroke-width="1" stroke-linecap="butt" stroke-linejoin="bevel" transform="matrix(1,0,0,1,50.5868,1)" font-family="MS Shell Dlg 2" font-size="7.8" font-weight="400" font-style="normal"  > <polyline fill="none" vector-effect="non-scaling-stroke" points="0,33.25 19.0543,33.25 " /> </g>      <g fill="#424874" fill-opacity="1" stroke="#424874" stroke-opacity="1" stroke-width="1" stroke-linecap="square" stroke-linejoin="bevel" transform="matrix(1,0,0,1,69.6411,32.75)" font-family="MS Shell Dlg 2" font-size="7.8" font-weight="400" font-style="normal"  > <circle cx="1.5" cy="1.5" r="1.5"/> </g>                  <g fill="none" stroke="#000000" stroke-opacity="1" stroke-width="1" stroke-linecap="butt" stroke-linejoin="bevel" transform="matrix(1,0,0,1,72.6411,1)" font-family="MS Shell Dlg 2" font-size="7.8" font-weight="400" font-style="normal"  > <polyline fill="none" vector-effect="non-scaling-stroke" points="22.0715,7 22.0715,28 " /> </g>            <g fill="none" stroke="#000000" stroke-opacity="1" stroke-width="1" stroke-linecap="butt" stroke-linejoin="bevel" transform="matrix(1,0,0,1,72.6411,1)" font-family="MS Shell Dlg 2" font-size="7.8" font-weight="400" font-style="normal"  > <polyline fill="none" vector-effect="non-scaling-stroke" points="0,17.5 19.0715,17.5 " /> </g>      <g fill="#424874" fill-opacity="1" stroke="#424874" stroke-opacity="1" stroke-width="1" stroke-linecap="square" stroke-linejoin="bevel" transform="matrix(1,0,0,1,91.7126,17)" font-family="MS Shell Dlg 2" font-size="7.8" font-weight="400" font-style="normal"  > <circle cx="1.5" cy="1.5" r="1.5"/> </g>                        <g fill="none" stroke="#000000" stroke-opacity="1" stroke-width="1" stroke-linecap="butt" stroke-linejoin="bevel" transform="matrix(1,0,0,1,94.7126,1)" font-family="MS Shell Dlg 2" font-size="7.8" font-weight="400" font-style="normal"  > <polyline fill="none" vector-effect="non-scaling-stroke" points="0,7 28.7031,7 " /> </g>      <g fill="#424874" fill-opacity="1" stroke="#424874" stroke-opacity="1" stroke-width="1" stroke-linecap="square" stroke-linejoin="bevel" transform="matrix(1,0,0,1,123.416,6.5)" font-family="MS Shell Dlg 2" font-size="7.8" font-weight="400" font-style="normal"  > <circle cx="1.5" cy="1.5" r="1.5"/> </g>          <g fill="none" stroke="#000000" stroke-opacity="1" stroke-width="1" stroke-linecap="square" stroke-linejoin="bevel" transform="matrix(1,0,0,1,126.416,1)" font-family="Verdana" font-size="7pt" font-weight="400" font-style="normal"  > <text fill="#000000" fill-opacity="1" stroke="none" xml:space="preserve" x="0" y="12" font-family="Verdana" font-size="7pt" font-weight="400" font-style="normal"   >sp|Q13607|OR2F1_HUMAN|9606</text> </g>              <g fill="none" stroke="#000000" stroke-opacity="1" stroke-width="1" stroke-linecap="butt" stroke-linejoin="bevel" transform="matrix(1,0,0,1,94.7126,15)" font-family="MS Shell Dlg 2" font-size="7.8" font-weight="400" font-style="normal"  > <polyline fill="none" vector-effect="non-scaling-stroke" points="12.1308,7 12.1308,21 " /> </g>            <g fill="none" stroke="#000000" stroke-opacity="1" stroke-width="1" stroke-linecap="butt" stroke-linejoin="bevel" transform="matrix(1,0,0,1,94.7126,15)" font-family="MS Shell Dlg 2" font-size="7.8" font-weight="400" font-style="normal"  > <polyline fill="none" vector-effect="non-scaling-stroke" points="0,14 9.13084,14 " /> </g>      <g fill="#424874" fill-opacity="1" stroke="#424874" stroke-opacity="1" stroke-width="1" stroke-linecap="square" stroke-linejoin="bevel" transform="matrix(1,0,0,1,103.843,27.5)" font-family="MS Shell Dlg 2" font-size="7.8" font-weight="400" font-style="normal"  > <circle cx="1.5" cy="1.5" r="1.5"/> </g>                        <g fill="none" stroke="#000000" stroke-opacity="1" stroke-width="1" stroke-linecap="butt" stroke-linejoin="bevel" transform="matrix(1,0,0,1,106.843,15)" font-family="MS Shell Dlg 2" font-size="7.8" font-weight="400" font-style="normal"  > <polyline fill="none" vector-effect="non-scaling-stroke" points="0,7 9.29108,7 " /> </g>      <g fill="#424874" fill-opacity="1" stroke="#424874" stroke-opacity="1" stroke-width="1" stroke-linecap="square" stroke-linejoin="bevel" transform="matrix(1,0,0,1,116.134,20.5)" font-family="MS Shell Dlg 2" font-size="7.8" font-weight="400" font-style="normal"  > <circle cx="1.5" cy="1.5" r="1.5"/> </g>          <g fill="none" stroke="#000000" stroke-opacity="1" stroke-width="1" stroke-linecap="square" stroke-linejoin="bevel" transform="matrix(1,0,0,1,119.134,15)" font-family="Verdana" font-size="7pt" font-weight="400" font-style="normal"  > <text fill="#000000" fill-opacity="1" stroke="none" xml:space="preserve" x="0" y="12" font-family="Verdana" font-size="7pt" font-weight="400" font-style="normal"   >tr|A0A2J8QUK5|A0A2J8QUK5_PANTR|9598</text> </g>                    <g fill="none" stroke="#000000" stroke-opacity="1" stroke-width="1" stroke-linecap="butt" stroke-linejoin="bevel" transform="matrix(1,0,0,1,106.843,29)" font-family="MS Shell Dlg 2" font-size="7.8" font-weight="400" font-style="normal"  > <polyline fill="none" vector-effect="non-scaling-stroke" points="0,7 9.2968,7 " /> </g>      <g fill="#424874" fill-opacity="1" stroke="#424874" stroke-opacity="1" stroke-width="1" stroke-linecap="square" stroke-linejoin="bevel" transform="matrix(1,0,0,1,116.14,34.5)" font-family="MS Shell Dlg 2" font-size="7.8" font-weight="400" font-style="normal"  > <circle cx="1.5" cy="1.5" r="1.5"/> </g>          <g fill="none" stroke="#000000" stroke-opacity="1" stroke-width="1" stroke-linecap="square" stroke-linejoin="bevel" transform="matrix(1,0,0,1,119.14,29)" font-family="Verdana" font-size="7pt" font-weight="400" font-style="normal"  > <text fill="#000000" fill-opacity="1" stroke="none" xml:space="preserve" x="0" y="12" font-family="Verdana" font-size="7pt" font-weight="400" font-style="normal"   >tr|A0A2R8Z9L0|A0A2R8Z9L0_PANPA|9597</text> </g>                    <g fill="none" stroke="#000000" stroke-opacity="1" stroke-width="1" stroke-linecap="butt" stroke-linejoin="bevel" transform="matrix(1,0,0,1,72.6411,43)" font-family="MS Shell Dlg 2" font-size="7.8" font-weight="400" font-style="normal"  > <polyline fill="none" vector-effect="non-scaling-stroke" points="0,7 18.7224,7 " /> </g>      <g fill="#424874" fill-opacity="1" stroke="#424874" stroke-opacity="1" stroke-width="1" stroke-linecap="square" stroke-linejoin="bevel" transform="matrix(1,0,0,1,91.3635,48.5)" font-family="MS Shell Dlg 2" font-size="7.8" font-weight="400" font-style="normal"  > <circle cx="1.5" cy="1.5" r="1.5"/> </g>          <g fill="none" stroke="#000000" stroke-opacity="1" stroke-width="1" stroke-linecap="square" stroke-linejoin="bevel" transform="matrix(1,0,0,1,94.3635,43)" font-family="Verdana" font-size="7pt" font-weight="400" font-style="normal"  > <text fill="#000000" fill-opacity="1" stroke="none" xml:space="preserve" x="0" y="12" font-family="Verdana" font-size="7pt" font-weight="400" font-style="normal"   >tr|G3S8W0|G3S8W0_GORGO|9595</text> </g>                    <g fill="none" stroke="#000000" stroke-opacity="1" stroke-width="1" stroke-linecap="butt" stroke-linejoin="bevel" transform="matrix(1,0,0,1,50.5868,57)" font-family="MS Shell Dlg 2" font-size="7.8" font-weight="400" font-style="normal"  > <polyline fill="none" vector-effect="non-scaling-stroke" points="0,7 28.0936,7 " /> </g>      <g fill="#424874" fill-opacity="1" stroke="#424874" stroke-opacity="1" stroke-width="1" stroke-linecap="square" stroke-linejoin="bevel" transform="matrix(1,0,0,1,78.6804,62.5)" font-family="MS Shell Dlg 2" font-size="7.8" font-weight="400" font-style="normal"  > <circle cx="1.5" cy="1.5" r="1.5"/> </g>          <g fill="none" stroke="#000000" stroke-opacity="1" stroke-width="1" stroke-linecap="square" stroke-linejoin="bevel" transform="matrix(1,0,0,1,81.6804,57)" font-family="Verdana" font-size="7pt" font-weight="400" font-style="normal"  > <text fill="#000000" fill-opacity="1" stroke="none" xml:space="preserve" x="0" y="12" font-family="Verdana" font-size="7pt" font-weight="400" font-style="normal"   >tr|A0A2J8RNL1|A0A2J8RNL1_PONAB|9601</text> </g>              <g fill="none" stroke="#000000" stroke-opacity="1" stroke-width="1" stroke-linecap="butt" stroke-linejoin="bevel" transform="matrix(1,0,0,1,4,71)" font-family="MS Shell Dlg 2" font-size="7.8" font-weight="400" font-style="normal"  > <polyline fill="none" vector-effect="non-scaling-stroke" points="46.5868,68.25 46.5868,112 " /> </g>            <g fill="none" stroke="#000000" stroke-opacity="1" stroke-width="1" stroke-linecap="butt" stroke-linejoin="bevel" transform="matrix(1,0,0,1,4,71)" font-family="MS Shell Dlg 2" font-size="7.8" font-weight="400" font-style="normal"  > <polyline fill="none" vector-effect="non-scaling-stroke" points="0,90.125 43.5868,90.125 " /> </g>      <g fill="#424874" fill-opacity="1" stroke="#424874" stroke-opacity="1" stroke-width="1" stroke-linecap="square" stroke-linejoin="bevel" transform="matrix(1,0,0,1,47.5868,159.625)" font-family="MS Shell Dlg 2" font-size="7.8" font-weight="400" font-style="normal"  > <circle cx="1.5" cy="1.5" r="1.5"/> </g>                  <g fill="none" stroke="#000000" stroke-opacity="1" stroke-width="1" stroke-linecap="butt" stroke-linejoin="bevel" transform="matrix(1,0,0,1,50.5868,71)" font-family="MS Shell Dlg 2" font-size="7.8" font-weight="400" font-style="normal"  > <polyline fill="none" vector-effect="non-scaling-stroke" points="34.9164,45.5 34.9164,91 " /> </g>            <g fill="none" stroke="#000000" stroke-opacity="1" stroke-width="1" stroke-linecap="butt" stroke-linejoin="bevel" transform="matrix(1,0,0,1,50.5868,71)" font-family="MS Shell Dlg 2" font-size="7.8" font-weight="400" font-style="normal"  > <polyline fill="none" vector-effect="non-scaling-stroke" points="0,68.25 31.9164,68.25 " /> </g>      <g fill="#424874" fill-opacity="1" stroke="#424874" stroke-opacity="1" stroke-width="1" stroke-linecap="square" stroke-linejoin="bevel" transform="matrix(1,0,0,1,82.5033,137.75)" font-family="MS Shell Dlg 2" font-size="7.8" font-weight="400" font-style="normal"  > <circle cx="1.5" cy="1.5" r="1.5"/> </g>                  <g fill="none" stroke="#000000" stroke-opacity="1" stroke-width="1" stroke-linecap="butt" stroke-linejoin="bevel" transform="matrix(1,0,0,1,85.5033,71)" font-family="MS Shell Dlg 2" font-size="7.8" font-weight="400" font-style="normal"  > <polyline fill="none" vector-effect="non-scaling-stroke" points="60.7295,24.5 60.7295,66.5 " /> </g>            <g fill="none" stroke="#000000" stroke-opacity="1" stroke-width="1" stroke-linecap="butt" stroke-linejoin="bevel" transform="matrix(1,0,0,1,85.5033,71)" font-family="MS Shell Dlg 2" font-size="7.8" font-weight="400" font-style="normal"  > <polyline fill="none" vector-effect="non-scaling-stroke" points="0,45.5 57.7295,45.5 " /> </g>      <g fill="#424874" fill-opacity="1" stroke="#424874" stroke-opacity="1" stroke-width="1" stroke-linecap="square" stroke-linejoin="bevel" transform="matrix(1,0,0,1,143.233,115)" font-family="MS Shell Dlg 2" font-size="7.8" font-weight="400" font-style="normal"  > <circle cx="1.5" cy="1.5" r="1.5"/> </g>                  <g fill="none" stroke="#000000" stroke-opacity="1" stroke-width="1" stroke-linecap="butt" stroke-linejoin="bevel" transform="matrix(1,0,0,1,146.233,71)" font-family="MS Shell Dlg 2" font-size="7.8" font-weight="400" font-style="normal"  > <polyline fill="none" vector-effect="non-scaling-stroke" points="22.2632,14 22.2632,35 " /> </g>            <g fill="none" stroke="#000000" stroke-opacity="1" stroke-width="1" stroke-linecap="butt" stroke-linejoin="bevel" transform="matrix(1,0,0,1,146.233,71)" font-family="MS Shell Dlg 2" font-size="7.8" font-weight="400" font-style="normal"  > <polyline fill="none" vector-effect="non-scaling-stroke" points="0,24.5 19.2632,24.5 " /> </g>      <g fill="#424874" fill-opacity="1" stroke="#424874" stroke-opacity="1" stroke-width="1" stroke-linecap="square" stroke-linejoin="bevel" transform="matrix(1,0,0,1,165.496,94)" font-family="MS Shell Dlg 2" font-size="7.8" font-weight="400" font-style="normal"  > <circle cx="1.5" cy="1.5" r="1.5"/> </g>                  <g fill="none" stroke="#000000" stroke-opacity="1" stroke-width="1" stroke-linecap="butt" stroke-linejoin="bevel" transform="matrix(1,0,0,1,168.496,71)" font-family="MS Shell Dlg 2" font-size="7.8" font-weight="400" font-style="normal"  > <polyline fill="none" vector-effect="non-scaling-stroke" points="21.1758,7 21.1758,21 " /> </g>            <g fill="none" stroke="#000000" stroke-opacity="1" stroke-width="1" stroke-linecap="butt" stroke-linejoin="bevel" transform="matrix(1,0,0,1,168.496,71)" font-family="MS Shell Dlg 2" font-size="7.8" font-weight="400" font-style="normal"  > <polyline fill="none" vector-effect="non-scaling-stroke" points="0,14 18.1758,14 " /> </g>      <g fill="#424874" fill-opacity="1" stroke="#424874" stroke-opacity="1" stroke-width="1" stroke-linecap="square" stroke-linejoin="bevel" transform="matrix(1,0,0,1,186.672,83.5)" font-family="MS Shell Dlg 2" font-size="7.8" font-weight="400" font-style="normal"  > <circle cx="1.5" cy="1.5" r="1.5"/> </g>                  <g fill="none" stroke="#808080" stroke-opacity="1" stroke-dasharray="1,2" stroke-dashoffset="0" stroke-width="1" stroke-linecap="butt" stroke-linejoin="bevel" transform="matrix(1,0,0,1,189.672,71)" font-family="MS Shell Dlg 2" font-size="7.8" font-weight="400" font-style="normal"  > <polyline fill="none" vector-effect="non-scaling-stroke" points="0.00286144,7 0.00286144,7 " /> </g>      <g fill="none" stroke="#000000" stroke-opacity="1" stroke-width="1" stroke-linecap="butt" stroke-linejoin="bevel" transform="matrix(1,0,0,1,189.672,71)" font-family="MS Shell Dlg 2" font-size="7.8" font-weight="400" font-style="normal"  > <polyline fill="none" vector-effect="non-scaling-stroke" points="0,7 0.00286144,7 " /> </g>      <g fill="#424874" fill-opacity="1" stroke="#424874" stroke-opacity="1" stroke-width="1" stroke-linecap="square" stroke-linejoin="bevel" transform="matrix(1,0,0,1,189.675,76.5)" font-family="MS Shell Dlg 2" font-size="7.8" font-weight="400" font-style="normal"  > <circle cx="1.5" cy="1.5" r="1.5"/> </g>          <g fill="none" stroke="#000000" stroke-opacity="1" stroke-width="1" stroke-linecap="square" stroke-linejoin="bevel" transform="matrix(1,0,0,1,192.675,71)" font-family="Verdana" font-size="7pt" font-weight="400" font-style="normal"  > <text fill="#000000" fill-opacity="1" stroke="none" xml:space="preserve" x="0" y="12" font-family="Verdana" font-size="7pt" font-weight="400" font-style="normal"   >tr|A0A2K5KZQ2|A0A2K5KZQ2_CERAT|9531</text> </g>                    <g fill="none" stroke="#000000" stroke-opacity="1" stroke-width="1" stroke-linecap="butt" stroke-linejoin="bevel" transform="matrix(1,0,0,1,189.672,85)" font-family="MS Shell Dlg 2" font-size="7.8" font-weight="400" font-style="normal"  > <polyline fill="none" vector-effect="non-scaling-stroke" points="0,7 9.32828,7 " /> </g>      <g fill="#424874" fill-opacity="1" stroke="#424874" stroke-opacity="1" stroke-width="1" stroke-linecap="square" stroke-linejoin="bevel" transform="matrix(1,0,0,1,199,90.5)" font-family="MS Shell Dlg 2" font-size="7.8" font-weight="400" font-style="normal"  > <circle cx="1.5" cy="1.5" r="1.5"/> </g>          <g fill="none" stroke="#000000" stroke-opacity="1" stroke-width="1" stroke-linecap="square" stroke-linejoin="bevel" transform="matrix(1,0,0,1,202,85)" font-family="Verdana" font-size="7pt" font-weight="400" font-style="normal"  > <text fill="#000000" fill-opacity="1" stroke="none" xml:space="preserve" x="0" y="12" font-family="Verdana" font-size="7pt" font-weight="400" font-style="normal"   >tr|A0A2K5XR66|A0A2K5XR66_MANLE|9568</text> </g>                    <g fill="none" stroke="#000000" stroke-opacity="1" stroke-width="1" stroke-linecap="butt" stroke-linejoin="bevel" transform="matrix(1,0,0,1,168.496,99)" font-family="MS Shell Dlg 2" font-size="7.8" font-weight="400" font-style="normal"  > <polyline fill="none" vector-effect="non-scaling-stroke" points="0,7 9.83475,7 " /> </g>      <g fill="#424874" fill-opacity="1" stroke="#424874" stroke-opacity="1" stroke-width="1" stroke-linecap="square" stroke-linejoin="bevel" transform="matrix(1,0,0,1,178.331,104.5)" font-family="MS Shell Dlg 2" font-size="7.8" font-weight="400" font-style="normal"  > <circle cx="1.5" cy="1.5" r="1.5"/> </g>          <g fill="none" stroke="#000000" stroke-opacity="1" stroke-width="1" stroke-linecap="square" stroke-linejoin="bevel" transform="matrix(1,0,0,1,181.331,99)" font-family="Verdana" font-size="7pt" font-weight="400" font-style="normal"  > <text fill="#000000" fill-opacity="1" stroke="none" xml:space="preserve" x="0" y="12" font-family="Verdana" font-size="7pt" font-weight="400" font-style="normal"   >tr|A0A096N5C6|A0A096N5C6_PAPAN|9555</text> </g>              <g fill="none" stroke="#000000" stroke-opacity="1" stroke-width="1" stroke-linecap="butt" stroke-linejoin="bevel" transform="matrix(1,0,0,1,146.233,113)" font-family="MS Shell Dlg 2" font-size="7.8" font-weight="400" font-style="normal"  > <polyline fill="none" vector-effect="non-scaling-stroke" points="9.99621,14 9.99621,35 " /> </g>            <g fill="none" stroke="#000000" stroke-opacity="1" stroke-width="1" stroke-linecap="butt" stroke-linejoin="bevel" transform="matrix(1,0,0,1,146.233,113)" font-family="MS Shell Dlg 2" font-size="7.8" font-weight="400" font-style="normal"  > <polyline fill="none" vector-effect="non-scaling-stroke" points="0,24.5 6.99621,24.5 " /> </g>      <g fill="#424874" fill-opacity="1" stroke="#424874" stroke-opacity="1" stroke-width="1" stroke-linecap="square" stroke-linejoin="bevel" transform="matrix(1,0,0,1,153.229,136)" font-family="MS Shell Dlg 2" font-size="7.8" font-weight="400" font-style="normal"  > <circle cx="1.5" cy="1.5" r="1.5"/> </g>                  <g fill="none" stroke="#000000" stroke-opacity="1" stroke-width="1" stroke-linecap="butt" stroke-linejoin="bevel" transform="matrix(1,0,0,1,156.229,113)" font-family="MS Shell Dlg 2" font-size="7.8" font-weight="400" font-style="normal"  > <polyline fill="none" vector-effect="non-scaling-stroke" points="7.18628,7 7.18628,21 " /> </g>            <g fill="none" stroke="#000000" stroke-opacity="1" stroke-width="1" stroke-linecap="butt" stroke-linejoin="bevel" transform="matrix(1,0,0,1,156.229,113)" font-family="MS Shell Dlg 2" font-size="7.8" font-weight="400" font-style="normal"  > <polyline fill="none" vector-effect="non-scaling-stroke" points="0,14 4.18628,14 " /> </g>      <g fill="#424874" fill-opacity="1" stroke="#424874" stroke-opacity="1" stroke-width="1" stroke-linecap="square" stroke-linejoin="bevel" transform="matrix(1,0,0,1,160.415,125.5)" font-family="MS Shell Dlg 2" font-size="7.8" font-weight="400" font-style="normal"  > <circle cx="1.5" cy="1.5" r="1.5"/> </g>                        <g fill="none" stroke="#000000" stroke-opacity="1" stroke-width="1" stroke-linecap="butt" stroke-linejoin="bevel" transform="matrix(1,0,0,1,163.415,113)" font-family="MS Shell Dlg 2" font-size="7.8" font-weight="400" font-style="normal"  > <polyline fill="none" vector-effect="non-scaling-stroke" points="0,7 28.4627,7 " /> </g>      <g fill="#424874" fill-opacity="1" stroke="#424874" stroke-opacity="1" stroke-width="1" stroke-linecap="square" stroke-linejoin="bevel" transform="matrix(1,0,0,1,191.878,118.5)" font-family="MS Shell Dlg 2" font-size="7.8" font-weight="400" font-style="normal"  > <circle cx="1.5" cy="1.5" r="1.5"/> </g>          <g fill="none" stroke="#000000" stroke-opacity="1" stroke-width="1" stroke-linecap="square" stroke-linejoin="bevel" transform="matrix(1,0,0,1,194.878,113)" font-family="Verdana" font-size="7pt" font-weight="400" font-style="normal"  > <text fill="#000000" fill-opacity="1" stroke="none" xml:space="preserve" x="0" y="12" font-family="Verdana" font-size="7pt" font-weight="400" font-style="normal"   >tr|A0A7N9C9R7|A0A7N9C9R7_MACFA|9541</text> </g>                    <g fill="none" stroke="#000000" stroke-opacity="1" stroke-width="1" stroke-linecap="butt" stroke-linejoin="bevel" transform="matrix(1,0,0,1,163.415,127)" font-family="MS Shell Dlg 2" font-size="7.8" font-weight="400" font-style="normal"  > <polyline fill="none" vector-effect="non-scaling-stroke" points="0,7 18.8082,7 " /> </g>      <g fill="#424874" fill-opacity="1" stroke="#424874" stroke-opacity="1" stroke-width="1" stroke-linecap="square" stroke-linejoin="bevel" transform="matrix(1,0,0,1,182.223,132.5)" font-family="MS Shell Dlg 2" font-size="7.8" font-weight="400" font-style="normal"  > <circle cx="1.5" cy="1.5" r="1.5"/> </g>          <g fill="none" stroke="#000000" stroke-opacity="1" stroke-width="1" stroke-linecap="square" stroke-linejoin="bevel" transform="matrix(1,0,0,1,185.223,127)" font-family="Verdana" font-size="7pt" font-weight="400" font-style="normal"  > <text fill="#000000" fill-opacity="1" stroke="none" xml:space="preserve" x="0" y="12" font-family="Verdana" font-size="7pt" font-weight="400" font-style="normal"   >tr|A0A2K6AV78|A0A2K6AV78_MACNE|9545</text> </g>                    <g fill="none" stroke="#000000" stroke-opacity="1" stroke-width="1" stroke-linecap="butt" stroke-linejoin="bevel" transform="matrix(1,0,0,1,156.229,141)" font-family="MS Shell Dlg 2" font-size="7.8" font-weight="400" font-style="normal"  > <polyline fill="none" vector-effect="non-scaling-stroke" points="0,7 7.95193,7 " /> </g>      <g fill="#424874" fill-opacity="1" stroke="#424874" stroke-opacity="1" stroke-width="1" stroke-linecap="square" stroke-linejoin="bevel" transform="matrix(1,0,0,1,164.181,146.5)" font-family="MS Shell Dlg 2" font-size="7.8" font-weight="400" font-style="normal"  > <circle cx="1.5" cy="1.5" r="1.5"/> </g>          <g fill="none" stroke="#000000" stroke-opacity="1" stroke-width="1" stroke-linecap="square" stroke-linejoin="bevel" transform="matrix(1,0,0,1,167.181,141)" font-family="Verdana" font-size="7pt" font-weight="400" font-style="normal"  > <text fill="#000000" fill-opacity="1" stroke="none" xml:space="preserve" x="0" y="12" font-family="Verdana" font-size="7pt" font-weight="400" font-style="normal"   >tr|F7GTL8|F7GTL8_MACMU|9544</text> </g>                    <g fill="none" stroke="#000000" stroke-opacity="1" stroke-width="1" stroke-linecap="butt" stroke-linejoin="bevel" transform="matrix(1,0,0,1,85.5033,155)" font-family="MS Shell Dlg 2" font-size="7.8" font-weight="400" font-style="normal"  > <polyline fill="none" vector-effect="non-scaling-stroke" points="0,7 27.7645,7 " /> </g>      <g fill="#424874" fill-opacity="1" stroke="#424874" stroke-opacity="1" stroke-width="1" stroke-linecap="square" stroke-linejoin="bevel" transform="matrix(1,0,0,1,113.268,160.5)" font-family="MS Shell Dlg 2" font-size="7.8" font-weight="400" font-style="normal"  > <circle cx="1.5" cy="1.5" r="1.5"/> </g>          <g fill="none" stroke="#000000" stroke-opacity="1" stroke-width="1" stroke-linecap="square" stroke-linejoin="bevel" transform="matrix(1,0,0,1,116.268,155)" font-family="Verdana" font-size="7pt" font-weight="400" font-style="normal"  > <text fill="#000000" fill-opacity="1" stroke="none" xml:space="preserve" x="0" y="12" font-family="Verdana" font-size="7pt" font-weight="400" font-style="normal"   >tr|A0A0D9SCT5|A0A0D9SCT5_CHLSB|60711</text> </g>              <g fill="none" stroke="#000000" stroke-opacity="1" stroke-width="1" stroke-linecap="butt" stroke-linejoin="bevel" transform="matrix(1,0,0,1,50.5868,169)" font-family="MS Shell Dlg 2" font-size="7.8" font-weight="400" font-style="normal"  > <polyline fill="none" vector-effect="non-scaling-stroke" points="42.0843,7 42.0843,21 " /> </g>            <g fill="none" stroke="#000000" stroke-opacity="1" stroke-width="1" stroke-linecap="butt" stroke-linejoin="bevel" transform="matrix(1,0,0,1,50.5868,169)" font-family="MS Shell Dlg 2" font-size="7.8" font-weight="400" font-style="normal"  > <polyline fill="none" vector-effect="non-scaling-stroke" points="0,14 39.0843,14 " /> </g>      <g fill="#424874" fill-opacity="1" stroke="#424874" stroke-opacity="1" stroke-width="1" stroke-linecap="square" stroke-linejoin="bevel" transform="matrix(1,0,0,1,89.6711,181.5)" font-family="MS Shell Dlg 2" font-size="7.8" font-weight="400" font-style="normal"  > <circle cx="1.5" cy="1.5" r="1.5"/> </g>                        <g fill="none" stroke="#000000" stroke-opacity="1" stroke-width="1" stroke-linecap="butt" stroke-linejoin="bevel" transform="matrix(1,0,0,1,92.6711,169)" font-family="MS Shell Dlg 2" font-size="7.8" font-weight="400" font-style="normal"  > <polyline fill="none" vector-effect="non-scaling-stroke" points="0,7 74.2027,7 " /> </g>      <g fill="#424874" fill-opacity="1" stroke="#424874" stroke-opacity="1" stroke-width="1" stroke-linecap="square" stroke-linejoin="bevel" transform="matrix(1,0,0,1,166.874,174.5)" font-family="MS Shell Dlg 2" font-size="7.8" font-weight="400" font-style="normal"  > <circle cx="1.5" cy="1.5" r="1.5"/> </g>          <g fill="none" stroke="#000000" stroke-opacity="1" stroke-width="1" stroke-linecap="square" stroke-linejoin="bevel" transform="matrix(1,0,0,1,169.874,169)" font-family="Verdana" font-size="7pt" font-weight="400" font-style="normal"  > <text fill="#000000" fill-opacity="1" stroke="none" xml:space="preserve" x="0" y="12" font-family="Verdana" font-size="7pt" font-weight="400" font-style="normal"   >tr|A0A2K6NKK9|A0A2K6NKK9_RHIRO|61622</text> </g>                    <g fill="none" stroke="#000000" stroke-opacity="1" stroke-width="1" stroke-linecap="butt" stroke-linejoin="bevel" transform="matrix(1,0,0,1,92.6711,183)" font-family="MS Shell Dlg 2" font-size="7.8" font-weight="400" font-style="normal"  > <polyline fill="none" vector-effect="non-scaling-stroke" points="0,7 41.2218,7 " /> </g>      <g fill="#424874" fill-opacity="1" stroke="#424874" stroke-opacity="1" stroke-width="1" stroke-linecap="square" stroke-linejoin="bevel" transform="matrix(1,0,0,1,133.893,188.5)" font-family="MS Shell Dlg 2" font-size="7.8" font-weight="400" font-style="normal"  > <circle cx="1.5" cy="1.5" r="1.5"/> </g>          <g fill="none" stroke="#000000" stroke-opacity="1" stroke-width="1" stroke-linecap="square" stroke-linejoin="bevel" transform="matrix(1,0,0,1,136.893,183)" font-family="Verdana" font-size="7pt" font-weight="400" font-style="normal"  > <text fill="#000000" fill-opacity="1" stroke="none" xml:space="preserve" x="0" y="12" font-family="Verdana" font-size="7pt" font-weight="400" font-style="normal"   >tr|A0A2K5HM60|A0A2K5HM60_COLAP|336983</text> </g>                                                                                                                          <g fill="none" stroke="#000000" stroke-opacity="1" stroke-width="1" stroke-linecap="square" stroke-linejoin="bevel" transform="matrix(1,0,0,1,1,198)" font-family="MS Shell Dlg 2" font-size="7.8" font-weight="400" font-style="normal"  > <polyline fill="none" vector-effect="none" points="0,5 50,5 " /> </g>      <g fill="none" stroke="#000000" stroke-opacity="1" stroke-width="1" stroke-linecap="square" stroke-linejoin="bevel" transform="matrix(1,0,0,1,1,198)" font-family="MS Shell Dlg 2" font-size="7.8" font-weight="400" font-style="normal"  > <polyline fill="none" vector-effect="none" points="0,0 0,10 " /> </g>      <g fill="none" stroke="#000000" stroke-opacity="1" stroke-width="1" stroke-linecap="square" stroke-linejoin="bevel" transform="matrix(1,0,0,1,1,198)" font-family="MS Shell Dlg 2" font-size="7.8" font-weight="400" font-style="normal"  > <polyline fill="none" vector-effect="none" points="50,0 50,10 " /> </g>      <g fill="none" stroke="#000000" stroke-opacity="1" stroke-width="1" stroke-linecap="square" stroke-linejoin="bevel" transform="matrix(1,0,0,1,1,208)" font-family="MS Shell Dlg 2" font-size="7.8" font-weight="400" font-style="normal"  > <text fill="#000000" fill-opacity="1" stroke="none" xml:space="preserve" x="0" y="13" font-family="MS Shell Dlg 2" font-size="7.8" font-weight="400" font-style="normal"   >0.0174737</text> </g>     </g> </svg> 