<?xml version="1.0" encoding="UTF-8" standalone="no"?> <svg width="161.219mm" height="62.7944mm"  viewBox="0 0 457 178"  xmlns="http://www.w3.org/2000/svg" xmlns:xlink="http://www.w3.org/1999/xlink"  version="1.2" baseProfile="tiny"> <title>Generated with ETE http://etetoolkit.org</title> <desc>Generated with ETE http://etetoolkit.org</desc> <defs> </defs> <g fill="none" stroke="black" stroke-width="1" fill-rule="evenodd" stroke-linecap="square" stroke-linejoin="bevel" >      <g fill="none" stroke="none" transform="matrix(1,0,0,1,0,0)" font-family="MS Shell Dlg 2" font-size="7.8" font-weight="400" font-style="normal"  > <rect x="0" y="0" width="457" height="178"/> </g>      <g fill="none" stroke="none" transform="matrix(1,0,0,1,1,1)" font-family="MS Shell Dlg 2" font-size="7.8" font-weight="400" font-style="normal"  > <rect x="0" y="0" width="455" height="126"/> </g>                                                                          <g fill="none" stroke="#000000" stroke-opacity="1" stroke-width="1" stroke-linecap="butt" stroke-linejoin="bevel" transform="matrix(1,0,0,1,1,1)" font-family="MS Shell Dlg 2" font-size="7.8" font-weight="400" font-style="normal"  > <polyline fill="none" vector-effect="non-scaling-stroke" points="3,36.75 3,92.75 " /> </g>                  <g fill="#424874" fill-opacity="1" stroke="#424874" stroke-opacity="1" stroke-width="1" stroke-linecap="square" stroke-linejoin="bevel" transform="matrix(1,0,0,1,1,64.25)" font-family="MS Shell Dlg 2" font-size="7.8" font-weight="400" font-style="normal"  > <circle cx="1.5" cy="1.5" r="1.5"/> </g>                  <g fill="none" stroke="#000000" stroke-opacity="1" stroke-width="1" stroke-linecap="butt" stroke-linejoin="bevel" transform="matrix(1,0,0,1,4,1)" font-family="MS Shell Dlg 2" font-size="7.8" font-weight="400" font-style="normal"  > <polyline fill="none" vector-effect="non-scaling-stroke" points="41.1095,17.5 41.1095,56 " /> </g>            <g fill="none" stroke="#000000" stroke-opacity="1" stroke-width="1" stroke-linecap="butt" stroke-linejoin="bevel" transform="matrix(1,0,0,1,4,1)" font-family="MS Shell Dlg 2" font-size="7.8" font-weight="400" font-style="normal"  > <polyline fill="none" vector-effect="non-scaling-stroke" points="0,36.75 38.1095,36.75 " /> </g>      <g fill="#424874" fill-opacity="1" stroke="#424874" stroke-opacity="1" stroke-width="1" stroke-linecap="square" stroke-linejoin="bevel" transform="matrix(1,0,0,1,42.1095,36.25)" font-family="MS Shell Dlg 2" font-size="7.8" font-weight="400" font-style="normal"  > <circle cx="1.5" cy="1.5" r="1.5"/> </g>                  <g fill="none" stroke="#000000" stroke-opacity="1" stroke-width="1" stroke-linecap="butt" stroke-linejoin="bevel" transform="matrix(1,0,0,1,45.1095,1)" font-family="MS Shell Dlg 2" font-size="7.8" font-weight="400" font-style="normal"  > <polyline fill="none" vector-effect="non-scaling-stroke" points="33.5325,7 33.5325,28 " /> </g>            <g fill="none" stroke="#000000" stroke-opacity="1" stroke-width="1" stroke-linecap="butt" stroke-linejoin="bevel" transform="matrix(1,0,0,1,45.1095,1)" font-family="MS Shell Dlg 2" font-size="7.8" font-weight="400" font-style="normal"  > <polyline fill="none" vector-effect="non-scaling-stroke" points="0,17.5 30.5325,17.5 " /> </g>      <g fill="#424874" fill-opacity="1" stroke="#424874" stroke-opacity="1" stroke-width="1" stroke-linecap="square" stroke-linejoin="bevel" transform="matrix(1,0,0,1,75.6421,17)" font-family="MS Shell Dlg 2" font-size="7.8" font-weight="400" font-style="normal"  > <circle cx="1.5" cy="1.5" r="1.5"/> </g>                        <g fill="none" stroke="#000000" stroke-opacity="1" stroke-width="1" stroke-linecap="butt" stroke-linejoin="bevel" transform="matrix(1,0,0,1,78.6421,1)" font-family="MS Shell Dlg 2" font-size="7.8" font-weight="400" font-style="normal"  > <polyline fill="none" vector-effect="non-scaling-stroke" points="0,7 23.1462,7 " /> </g>      <g fill="#424874" fill-opacity="1" stroke="#424874" stroke-opacity="1" stroke-width="1" stroke-linecap="square" stroke-linejoin="bevel" transform="matrix(1,0,0,1,101.788,6.5)" font-family="MS Shell Dlg 2" font-size="7.8" font-weight="400" font-style="normal"  > <circle cx="1.5" cy="1.5" r="1.5"/> </g>          <g fill="none" stroke="#000000" stroke-opacity="1" stroke-width="1" stroke-linecap="square" stroke-linejoin="bevel" transform="matrix(1,0,0,1,104.788,1)" font-family="Verdana" font-size="7pt" font-weight="400" font-style="normal"  > <text fill="#000000" fill-opacity="1" stroke="none" xml:space="preserve" x="0" y="12" font-family="Verdana" font-size="7pt" font-weight="400" font-style="normal"   >sp|Q8NGP2|OR8J1_HUMAN|9606</text> </g>              <g fill="none" stroke="#000000" stroke-opacity="1" stroke-width="1" stroke-linecap="butt" stroke-linejoin="bevel" transform="matrix(1,0,0,1,78.6421,15)" font-family="MS Shell Dlg 2" font-size="7.8" font-weight="400" font-style="normal"  > <polyline fill="none" vector-effect="non-scaling-stroke" points="33.9944,7 33.9944,21 " /> </g>            <g fill="none" stroke="#000000" stroke-opacity="1" stroke-width="1" stroke-linecap="butt" stroke-linejoin="bevel" transform="matrix(1,0,0,1,78.6421,15)" font-family="MS Shell Dlg 2" font-size="7.8" font-weight="400" font-style="normal"  > <polyline fill="none" vector-effect="non-scaling-stroke" points="0,14 30.9944,14 " /> </g>      <g fill="#424874" fill-opacity="1" stroke="#424874" stroke-opacity="1" stroke-width="1" stroke-linecap="square" stroke-linejoin="bevel" transform="matrix(1,0,0,1,109.637,27.5)" font-family="MS Shell Dlg 2" font-size="7.8" font-weight="400" font-style="normal"  > <circle cx="1.5" cy="1.5" r="1.5"/> </g>                        <g fill="none" stroke="#000000" stroke-opacity="1" stroke-width="1" stroke-linecap="butt" stroke-linejoin="bevel" transform="matrix(1,0,0,1,112.637,15)" font-family="MS Shell Dlg 2" font-size="7.8" font-weight="400" font-style="normal"  > <polyline fill="none" vector-effect="non-scaling-stroke" points="0,7 19.9362,7 " /> </g>      <g fill="#424874" fill-opacity="1" stroke="#424874" stroke-opacity="1" stroke-width="1" stroke-linecap="square" stroke-linejoin="bevel" transform="matrix(1,0,0,1,132.573,20.5)" font-family="MS Shell Dlg 2" font-size="7.8" font-weight="400" font-style="normal"  > <circle cx="1.5" cy="1.5" r="1.5"/> </g>          <g fill="none" stroke="#000000" stroke-opacity="1" stroke-width="1" stroke-linecap="square" stroke-linejoin="bevel" transform="matrix(1,0,0,1,135.573,15)" font-family="Verdana" font-size="7pt" font-weight="400" font-style="normal"  > <text fill="#000000" fill-opacity="1" stroke="none" xml:space="preserve" x="0" y="12" font-family="Verdana" font-size="7pt" font-weight="400" font-style="normal"   >tr|A0A2R9ARN4|A0A2R9ARN4_PANPA|9597</text> </g>                    <g fill="none" stroke="#000000" stroke-opacity="1" stroke-width="1" stroke-linecap="butt" stroke-linejoin="bevel" transform="matrix(1,0,0,1,112.637,29)" font-family="MS Shell Dlg 2" font-size="7.8" font-weight="400" font-style="normal"  > <polyline fill="none" vector-effect="non-scaling-stroke" points="0,7 13.3784,7 " /> </g>      <g fill="#424874" fill-opacity="1" stroke="#424874" stroke-opacity="1" stroke-width="1" stroke-linecap="square" stroke-linejoin="bevel" transform="matrix(1,0,0,1,126.015,34.5)" font-family="MS Shell Dlg 2" font-size="7.8" font-weight="400" font-style="normal"  > <circle cx="1.5" cy="1.5" r="1.5"/> </g>          <g fill="none" stroke="#000000" stroke-opacity="1" stroke-width="1" stroke-linecap="square" stroke-linejoin="bevel" transform="matrix(1,0,0,1,129.015,29)" font-family="Verdana" font-size="7pt" font-weight="400" font-style="normal"  > <text fill="#000000" fill-opacity="1" stroke="none" xml:space="preserve" x="0" y="12" font-family="Verdana" font-size="7pt" font-weight="400" font-style="normal"   >tr|A0A2J8LC31|A0A2J8LC31_PANTR|9598</text> </g>              <g fill="none" stroke="#000000" stroke-opacity="1" stroke-width="1" stroke-linecap="butt" stroke-linejoin="bevel" transform="matrix(1,0,0,1,45.1095,43)" font-family="MS Shell Dlg 2" font-size="7.8" font-weight="400" font-style="normal"  > <polyline fill="none" vector-effect="non-scaling-stroke" points="83.3635,7 83.3635,21 " /> </g>            <g fill="none" stroke="#000000" stroke-opacity="1" stroke-width="1" stroke-linecap="butt" stroke-linejoin="bevel" transform="matrix(1,0,0,1,45.1095,43)" font-family="MS Shell Dlg 2" font-size="7.8" font-weight="400" font-style="normal"  > <polyline fill="none" vector-effect="non-scaling-stroke" points="0,14 80.3635,14 " /> </g>      <g fill="#424874" fill-opacity="1" stroke="#424874" stroke-opacity="1" stroke-width="1" stroke-linecap="square" stroke-linejoin="bevel" transform="matrix(1,0,0,1,125.473,55.5)" font-family="MS Shell Dlg 2" font-size="7.8" font-weight="400" font-style="normal"  > <circle cx="1.5" cy="1.5" r="1.5"/> </g>                        <g fill="none" stroke="#000000" stroke-opacity="1" stroke-width="1" stroke-linecap="butt" stroke-linejoin="bevel" transform="matrix(1,0,0,1,128.473,43)" font-family="MS Shell Dlg 2" font-size="7.8" font-weight="400" font-style="normal"  > <polyline fill="none" vector-effect="non-scaling-stroke" points="0,7 42.1713,7 " /> </g>      <g fill="#424874" fill-opacity="1" stroke="#424874" stroke-opacity="1" stroke-width="1" stroke-linecap="square" stroke-linejoin="bevel" transform="matrix(1,0,0,1,170.644,48.5)" font-family="MS Shell Dlg 2" font-size="7.8" font-weight="400" font-style="normal"  > <circle cx="1.5" cy="1.5" r="1.5"/> </g>          <g fill="none" stroke="#000000" stroke-opacity="1" stroke-width="1" stroke-linecap="square" stroke-linejoin="bevel" transform="matrix(1,0,0,1,173.644,43)" font-family="Verdana" font-size="7pt" font-weight="400" font-style="normal"  > <text fill="#000000" fill-opacity="1" stroke="none" xml:space="preserve" x="0" y="12" font-family="Verdana" font-size="7pt" font-weight="400" font-style="normal"   >tr|A0A5F4WMT1|A0A5F4WMT1_CALJA|9483</text> </g>                    <g fill="none" stroke="#000000" stroke-opacity="1" stroke-width="1" stroke-linecap="butt" stroke-linejoin="bevel" transform="matrix(1,0,0,1,128.473,57)" font-family="MS Shell Dlg 2" font-size="7.8" font-weight="400" font-style="normal"  > <polyline fill="none" vector-effect="non-scaling-stroke" points="0,7 61.527,7 " /> </g>      <g fill="#424874" fill-opacity="1" stroke="#424874" stroke-opacity="1" stroke-width="1" stroke-linecap="square" stroke-linejoin="bevel" transform="matrix(1,0,0,1,190,62.5)" font-family="MS Shell Dlg 2" font-size="7.8" font-weight="400" font-style="normal"  > <circle cx="1.5" cy="1.5" r="1.5"/> </g>          <g fill="none" stroke="#000000" stroke-opacity="1" stroke-width="1" stroke-linecap="square" stroke-linejoin="bevel" transform="matrix(1,0,0,1,193,57)" font-family="Verdana" font-size="7pt" font-weight="400" font-style="normal"  > <text fill="#000000" fill-opacity="1" stroke="none" xml:space="preserve" x="0" y="12" font-family="Verdana" font-size="7pt" font-weight="400" font-style="normal"   >tr|A0A6J3I6W0|A0A6J3I6W0_SAPAP|9515</text> </g>              <g fill="none" stroke="#000000" stroke-opacity="1" stroke-width="1" stroke-linecap="butt" stroke-linejoin="bevel" transform="matrix(1,0,0,1,4,71)" font-family="MS Shell Dlg 2" font-size="7.8" font-weight="400" font-style="normal"  > <polyline fill="none" vector-effect="non-scaling-stroke" points="41.1095,7 41.1095,38.5 " /> </g>            <g fill="none" stroke="#000000" stroke-opacity="1" stroke-width="1" stroke-linecap="butt" stroke-linejoin="bevel" transform="matrix(1,0,0,1,4,71)" font-family="MS Shell Dlg 2" font-size="7.8" font-weight="400" font-style="normal"  > <polyline fill="none" vector-effect="non-scaling-stroke" points="0,22.75 38.1095,22.75 " /> </g>      <g fill="#424874" fill-opacity="1" stroke="#424874" stroke-opacity="1" stroke-width="1" stroke-linecap="square" stroke-linejoin="bevel" transform="matrix(1,0,0,1,42.1095,92.25)" font-family="MS Shell Dlg 2" font-size="7.8" font-weight="400" font-style="normal"  > <circle cx="1.5" cy="1.5" r="1.5"/> </g>                        <g fill="none" stroke="#000000" stroke-opacity="1" stroke-width="1" stroke-linecap="butt" stroke-linejoin="bevel" transform="matrix(1,0,0,1,45.1095,71)" font-family="MS Shell Dlg 2" font-size="7.8" font-weight="400" font-style="normal"  > <polyline fill="none" vector-effect="non-scaling-stroke" points="0,7 25.0363,7 " /> </g>      <g fill="#424874" fill-opacity="1" stroke="#424874" stroke-opacity="1" stroke-width="1" stroke-linecap="square" stroke-linejoin="bevel" transform="matrix(1,0,0,1,70.1458,76.5)" font-family="MS Shell Dlg 2" font-size="7.8" font-weight="400" font-style="normal"  > <circle cx="1.5" cy="1.5" r="1.5"/> </g>          <g fill="none" stroke="#000000" stroke-opacity="1" stroke-width="1" stroke-linecap="square" stroke-linejoin="bevel" transform="matrix(1,0,0,1,73.1458,71)" font-family="Verdana" font-size="7pt" font-weight="400" font-style="normal"  > <text fill="#000000" fill-opacity="1" stroke="none" xml:space="preserve" x="0" y="12" font-family="Verdana" font-size="7pt" font-weight="400" font-style="normal"   >tr|A0A0D9SCW6|A0A0D9SCW6_CHLSB|60711</text> </g>              <g fill="none" stroke="#000000" stroke-opacity="1" stroke-width="1" stroke-linecap="butt" stroke-linejoin="bevel" transform="matrix(1,0,0,1,45.1095,85)" font-family="MS Shell Dlg 2" font-size="7.8" font-weight="400" font-style="normal"  > <polyline fill="none" vector-effect="non-scaling-stroke" points="12.7149,14 12.7149,35 " /> </g>            <g fill="none" stroke="#000000" stroke-opacity="1" stroke-width="1" stroke-linecap="butt" stroke-linejoin="bevel" transform="matrix(1,0,0,1,45.1095,85)" font-family="MS Shell Dlg 2" font-size="7.8" font-weight="400" font-style="normal"  > <polyline fill="none" vector-effect="non-scaling-stroke" points="0,24.5 9.7149,24.5 " /> </g>      <g fill="#424874" fill-opacity="1" stroke="#424874" stroke-opacity="1" stroke-width="1" stroke-linecap="square" stroke-linejoin="bevel" transform="matrix(1,0,0,1,54.8244,108)" font-family="MS Shell Dlg 2" font-size="7.8" font-weight="400" font-style="normal"  > <circle cx="1.5" cy="1.5" r="1.5"/> </g>                  <g fill="none" stroke="#000000" stroke-opacity="1" stroke-width="1" stroke-linecap="butt" stroke-linejoin="bevel" transform="matrix(1,0,0,1,57.8244,85)" font-family="MS Shell Dlg 2" font-size="7.8" font-weight="400" font-style="normal"  > <polyline fill="none" vector-effect="non-scaling-stroke" points="3.00212,7 3.00212,21 " /> </g>            <g fill="none" stroke="#000000" stroke-opacity="1" stroke-width="1" stroke-linecap="butt" stroke-linejoin="bevel" transform="matrix(1,0,0,1,57.8244,85)" font-family="MS Shell Dlg 2" font-size="7.8" font-weight="400" font-style="normal"  > <polyline fill="none" vector-effect="non-scaling-stroke" points="0,14 0.00211884,14 " /> </g>      <g fill="#424874" fill-opacity="1" stroke="#424874" stroke-opacity="1" stroke-width="1" stroke-linecap="square" stroke-linejoin="bevel" transform="matrix(1,0,0,1,57.8265,97.5)" font-family="MS Shell Dlg 2" font-size="7.8" font-weight="400" font-style="normal"  > <circle cx="1.5" cy="1.5" r="1.5"/> </g>                        <g fill="none" stroke="#000000" stroke-opacity="1" stroke-width="1" stroke-linecap="butt" stroke-linejoin="bevel" transform="matrix(1,0,0,1,60.8265,85)" font-family="MS Shell Dlg 2" font-size="7.8" font-weight="400" font-style="normal"  > <polyline fill="none" vector-effect="non-scaling-stroke" points="0,7 13.6178,7 " /> </g>      <g fill="#424874" fill-opacity="1" stroke="#424874" stroke-opacity="1" stroke-width="1" stroke-linecap="square" stroke-linejoin="bevel" transform="matrix(1,0,0,1,74.4443,90.5)" font-family="MS Shell Dlg 2" font-size="7.8" font-weight="400" font-style="normal"  > <circle cx="1.5" cy="1.5" r="1.5"/> </g>          <g fill="none" stroke="#000000" stroke-opacity="1" stroke-width="1" stroke-linecap="square" stroke-linejoin="bevel" transform="matrix(1,0,0,1,77.4443,85)" font-family="Verdana" font-size="7pt" font-weight="400" font-style="normal"  > <text fill="#000000" fill-opacity="1" stroke="none" xml:space="preserve" x="0" y="12" font-family="Verdana" font-size="7pt" font-weight="400" font-style="normal"   >tr|F6SJW8|F6SJW8_MACMU|9544</text> </g>              <g fill="none" stroke="#808080" stroke-opacity="1" stroke-dasharray="1,2" stroke-dashoffset="0" stroke-width="1" stroke-linecap="butt" stroke-linejoin="bevel" transform="matrix(1,0,0,1,60.8265,99)" font-family="MS Shell Dlg 2" font-size="7.8" font-weight="400" font-style="normal"  > <polyline fill="none" vector-effect="non-scaling-stroke" points="0.00211884,7 0.00211884,7 " /> </g>      <g fill="none" stroke="#000000" stroke-opacity="1" stroke-width="1" stroke-linecap="butt" stroke-linejoin="bevel" transform="matrix(1,0,0,1,60.8265,99)" font-family="MS Shell Dlg 2" font-size="7.8" font-weight="400" font-style="normal"  > <polyline fill="none" vector-effect="non-scaling-stroke" points="0,7 0.00211884,7 " /> </g>      <g fill="#424874" fill-opacity="1" stroke="#424874" stroke-opacity="1" stroke-width="1" stroke-linecap="square" stroke-linejoin="bevel" transform="matrix(1,0,0,1,60.8287,104.5)" font-family="MS Shell Dlg 2" font-size="7.8" font-weight="400" font-style="normal"  > <circle cx="1.5" cy="1.5" r="1.5"/> </g>          <g fill="none" stroke="#000000" stroke-opacity="1" stroke-width="1" stroke-linecap="square" stroke-linejoin="bevel" transform="matrix(1,0,0,1,63.8287,99)" font-family="Verdana" font-size="7pt" font-weight="400" font-style="normal"  > <text fill="#000000" fill-opacity="1" stroke="none" xml:space="preserve" x="0" y="12" font-family="Verdana" font-size="7pt" font-weight="400" font-style="normal"   >tr|A0A7N9ID27|A0A7N9ID27_MACFA|9541</text> </g>                    <g fill="none" stroke="#000000" stroke-opacity="1" stroke-width="1" stroke-linecap="butt" stroke-linejoin="bevel" transform="matrix(1,0,0,1,57.8244,113)" font-family="MS Shell Dlg 2" font-size="7.8" font-weight="400" font-style="normal"  > <polyline fill="none" vector-effect="non-scaling-stroke" points="0,7 28.882,7 " /> </g>      <g fill="#424874" fill-opacity="1" stroke="#424874" stroke-opacity="1" stroke-width="1" stroke-linecap="square" stroke-linejoin="bevel" transform="matrix(1,0,0,1,86.7064,118.5)" font-family="MS Shell Dlg 2" font-size="7.8" font-weight="400" font-style="normal"  > <circle cx="1.5" cy="1.5" r="1.5"/> </g>          <g fill="none" stroke="#000000" stroke-opacity="1" stroke-width="1" stroke-linecap="square" stroke-linejoin="bevel" transform="matrix(1,0,0,1,89.7064,113)" font-family="Verdana" font-size="7pt" font-weight="400" font-style="normal"  > <text fill="#000000" fill-opacity="1" stroke="none" xml:space="preserve" x="0" y="12" font-family="Verdana" font-size="7pt" font-weight="400" font-style="normal"   >tr|A0A2K5KT83|A0A2K5KT83_CERAT|9531</text> </g>                                                                                  <g fill="none" stroke="#000000" stroke-opacity="1" stroke-width="1" stroke-linecap="square" stroke-linejoin="bevel" transform="matrix(1,0,0,1,1,128)" font-family="MS Shell Dlg 2" font-size="7.8" font-weight="400" font-style="normal"  > <polyline fill="none" vector-effect="none" points="0,5 50,5 " /> </g>      <g fill="none" stroke="#000000" stroke-opacity="1" stroke-width="1" stroke-linecap="square" stroke-linejoin="bevel" transform="matrix(1,0,0,1,1,128)" font-family="MS Shell Dlg 2" font-size="7.8" font-weight="400" font-style="normal"  > <polyline fill="none" vector-effect="none" points="0,0 0,10 " /> </g>      <g fill="none" stroke="#000000" stroke-opacity="1" stroke-width="1" stroke-linecap="square" stroke-linejoin="bevel" transform="matrix(1,0,0,1,1,128)" font-family="MS Shell Dlg 2" font-size="7.8" font-weight="400" font-style="normal"  > <polyline fill="none" vector-effect="none" points="50,0 50,10 " /> </g>      <g fill="none" stroke="#000000" stroke-opacity="1" stroke-width="1" stroke-linecap="square" stroke-linejoin="bevel" transform="matrix(1,0,0,1,1,138)" font-family="MS Shell Dlg 2" font-size="7.8" font-weight="400" font-style="normal"  > <text fill="#000000" fill-opacity="1" stroke="none" xml:space="preserve" x="0" y="13" font-family="MS Shell Dlg 2" font-size="7.8" font-weight="400" font-style="normal"   >0.0235978</text> </g>     </g> </svg> 