<?xml version="1.0" encoding="UTF-8" standalone="no"?> <svg width="144.992mm" height="43.0389mm"  viewBox="0 0 411.594 122"  xmlns="http://www.w3.org/2000/svg" xmlns:xlink="http://www.w3.org/1999/xlink"  version="1.2" baseProfile="tiny"> <title>Generated with ETE http://etetoolkit.org</title> <desc>Generated with ETE http://etetoolkit.org</desc> <defs> </defs> <g fill="none" stroke="black" stroke-width="1" fill-rule="evenodd" stroke-linecap="square" stroke-linejoin="bevel" >      <g fill="none" stroke="none" transform="matrix(1,0,0,1,0,0)" font-family="MS Shell Dlg 2" font-size="7.8" font-weight="400" font-style="normal"  > <rect x="0" y="0" width="411.594" height="122"/> </g>      <g fill="none" stroke="none" transform="matrix(1,0,0,1,1,1)" font-family="MS Shell Dlg 2" font-size="7.8" font-weight="400" font-style="normal"  > <rect x="0" y="0" width="409.594" height="70"/> </g>                                          <g fill="none" stroke="#000000" stroke-opacity="1" stroke-width="1" stroke-linecap="butt" stroke-linejoin="bevel" transform="matrix(1,0,0,1,1,1)" font-family="MS Shell Dlg 2" font-size="7.8" font-weight="400" font-style="normal"  > <polyline fill="none" vector-effect="non-scaling-stroke" points="3,19.25 3,63 " /> </g>                  <g fill="#424874" fill-opacity="1" stroke="#424874" stroke-opacity="1" stroke-width="1" stroke-linecap="square" stroke-linejoin="bevel" transform="matrix(1,0,0,1,1,40.625)" font-family="MS Shell Dlg 2" font-size="7.8" font-weight="400" font-style="normal"  > <circle cx="1.5" cy="1.5" r="1.5"/> </g>                  <g fill="none" stroke="#000000" stroke-opacity="1" stroke-width="1" stroke-linecap="butt" stroke-linejoin="bevel" transform="matrix(1,0,0,1,4,1)" font-family="MS Shell Dlg 2" font-size="7.8" font-weight="400" font-style="normal"  > <polyline fill="none" vector-effect="non-scaling-stroke" points="45.2505,7 45.2505,31.5 " /> </g>            <g fill="none" stroke="#000000" stroke-opacity="1" stroke-width="1" stroke-linecap="butt" stroke-linejoin="bevel" transform="matrix(1,0,0,1,4,1)" font-family="MS Shell Dlg 2" font-size="7.8" font-weight="400" font-style="normal"  > <polyline fill="none" vector-effect="non-scaling-stroke" points="0,19.25 42.2505,19.25 " /> </g>      <g fill="#424874" fill-opacity="1" stroke="#424874" stroke-opacity="1" stroke-width="1" stroke-linecap="square" stroke-linejoin="bevel" transform="matrix(1,0,0,1,46.2505,18.75)" font-family="MS Shell Dlg 2" font-size="7.8" font-weight="400" font-style="normal"  > <circle cx="1.5" cy="1.5" r="1.5"/> </g>                        <g fill="none" stroke="#000000" stroke-opacity="1" stroke-width="1" stroke-linecap="butt" stroke-linejoin="bevel" transform="matrix(1,0,0,1,49.2505,1)" font-family="MS Shell Dlg 2" font-size="7.8" font-weight="400" font-style="normal"  > <polyline fill="none" vector-effect="non-scaling-stroke" points="0,7 16.874,7 " /> </g>      <g fill="#424874" fill-opacity="1" stroke="#424874" stroke-opacity="1" stroke-width="1" stroke-linecap="square" stroke-linejoin="bevel" transform="matrix(1,0,0,1,66.1245,6.5)" font-family="MS Shell Dlg 2" font-size="7.8" font-weight="400" font-style="normal"  > <circle cx="1.5" cy="1.5" r="1.5"/> </g>          <g fill="none" stroke="#000000" stroke-opacity="1" stroke-width="1" stroke-linecap="square" stroke-linejoin="bevel" transform="matrix(1,0,0,1,69.1245,1)" font-family="Verdana" font-size="7pt" font-weight="400" font-style="normal"  > <text fill="#000000" fill-opacity="1" stroke="none" xml:space="preserve" x="0" y="12" font-family="Verdana" font-size="7pt" font-weight="400" font-style="normal"   >sp|P0C7N1|OR8U8_HUMAN|9606</text> </g>              <g fill="none" stroke="#000000" stroke-opacity="1" stroke-width="1" stroke-linecap="butt" stroke-linejoin="bevel" transform="matrix(1,0,0,1,49.2505,15)" font-family="MS Shell Dlg 2" font-size="7.8" font-weight="400" font-style="normal"  > <polyline fill="none" vector-effect="non-scaling-stroke" points="19.7124,7 19.7124,28 " /> </g>            <g fill="none" stroke="#000000" stroke-opacity="1" stroke-width="1" stroke-linecap="butt" stroke-linejoin="bevel" transform="matrix(1,0,0,1,49.2505,15)" font-family="MS Shell Dlg 2" font-size="7.8" font-weight="400" font-style="normal"  > <polyline fill="none" vector-effect="non-scaling-stroke" points="0,17.5 16.7124,17.5 " /> </g>      <g fill="#424874" fill-opacity="1" stroke="#424874" stroke-opacity="1" stroke-width="1" stroke-linecap="square" stroke-linejoin="bevel" transform="matrix(1,0,0,1,65.9629,31)" font-family="MS Shell Dlg 2" font-size="7.8" font-weight="400" font-style="normal"  > <circle cx="1.5" cy="1.5" r="1.5"/> </g>                        <g fill="none" stroke="#000000" stroke-opacity="1" stroke-width="1" stroke-linecap="butt" stroke-linejoin="bevel" transform="matrix(1,0,0,1,68.9629,15)" font-family="MS Shell Dlg 2" font-size="7.8" font-weight="400" font-style="normal"  > <polyline fill="none" vector-effect="non-scaling-stroke" points="0,7 50.6314,7 " /> </g>      <g fill="#424874" fill-opacity="1" stroke="#424874" stroke-opacity="1" stroke-width="1" stroke-linecap="square" stroke-linejoin="bevel" transform="matrix(1,0,0,1,119.594,20.5)" font-family="MS Shell Dlg 2" font-size="7.8" font-weight="400" font-style="normal"  > <circle cx="1.5" cy="1.5" r="1.5"/> </g>          <g fill="none" stroke="#000000" stroke-opacity="1" stroke-width="1" stroke-linecap="square" stroke-linejoin="bevel" transform="matrix(1,0,0,1,122.594,15)" font-family="Verdana" font-size="7pt" font-weight="400" font-style="normal"  > <text fill="#000000" fill-opacity="1" stroke="none" xml:space="preserve" x="0" y="12" font-family="Verdana" font-size="7pt" font-weight="400" font-style="normal"   >tr|A0A0D9SCW5|A0A0D9SCW5_CHLSB|60711</text> </g>              <g fill="none" stroke="#000000" stroke-opacity="1" stroke-width="1" stroke-linecap="butt" stroke-linejoin="bevel" transform="matrix(1,0,0,1,68.9629,29)" font-family="MS Shell Dlg 2" font-size="7.8" font-weight="400" font-style="normal"  > <polyline fill="none" vector-effect="non-scaling-stroke" points="31.3762,7 31.3762,21 " /> </g>            <g fill="none" stroke="#000000" stroke-opacity="1" stroke-width="1" stroke-linecap="butt" stroke-linejoin="bevel" transform="matrix(1,0,0,1,68.9629,29)" font-family="MS Shell Dlg 2" font-size="7.8" font-weight="400" font-style="normal"  > <polyline fill="none" vector-effect="non-scaling-stroke" points="0,14 28.3762,14 " /> </g>      <g fill="#424874" fill-opacity="1" stroke="#424874" stroke-opacity="1" stroke-width="1" stroke-linecap="square" stroke-linejoin="bevel" transform="matrix(1,0,0,1,97.3391,41.5)" font-family="MS Shell Dlg 2" font-size="7.8" font-weight="400" font-style="normal"  > <circle cx="1.5" cy="1.5" r="1.5"/> </g>                        <g fill="none" stroke="#000000" stroke-opacity="1" stroke-width="1" stroke-linecap="butt" stroke-linejoin="bevel" transform="matrix(1,0,0,1,100.339,29)" font-family="MS Shell Dlg 2" font-size="7.8" font-weight="400" font-style="normal"  > <polyline fill="none" vector-effect="non-scaling-stroke" points="0,7 92.6609,7 " /> </g>      <g fill="#424874" fill-opacity="1" stroke="#424874" stroke-opacity="1" stroke-width="1" stroke-linecap="square" stroke-linejoin="bevel" transform="matrix(1,0,0,1,193,34.5)" font-family="MS Shell Dlg 2" font-size="7.8" font-weight="400" font-style="normal"  > <circle cx="1.5" cy="1.5" r="1.5"/> </g>          <g fill="none" stroke="#000000" stroke-opacity="1" stroke-width="1" stroke-linecap="square" stroke-linejoin="bevel" transform="matrix(1,0,0,1,196,29)" font-family="Verdana" font-size="7pt" font-weight="400" font-style="normal"  > <text fill="#000000" fill-opacity="1" stroke="none" xml:space="preserve" x="0" y="12" font-family="Verdana" font-size="7pt" font-weight="400" font-style="normal"   >tr|F7HGI1|F7HGI1_CALJA|9483</text> </g>                    <g fill="none" stroke="#000000" stroke-opacity="1" stroke-width="1" stroke-linecap="butt" stroke-linejoin="bevel" transform="matrix(1,0,0,1,100.339,43)" font-family="MS Shell Dlg 2" font-size="7.8" font-weight="400" font-style="normal"  > <polyline fill="none" vector-effect="non-scaling-stroke" points="0,7 12.4048,7 " /> </g>      <g fill="#424874" fill-opacity="1" stroke="#424874" stroke-opacity="1" stroke-width="1" stroke-linecap="square" stroke-linejoin="bevel" transform="matrix(1,0,0,1,112.744,48.5)" font-family="MS Shell Dlg 2" font-size="7.8" font-weight="400" font-style="normal"  > <circle cx="1.5" cy="1.5" r="1.5"/> </g>          <g fill="none" stroke="#000000" stroke-opacity="1" stroke-width="1" stroke-linecap="square" stroke-linejoin="bevel" transform="matrix(1,0,0,1,115.744,43)" font-family="Verdana" font-size="7pt" font-weight="400" font-style="normal"  > <text fill="#000000" fill-opacity="1" stroke="none" xml:space="preserve" x="0" y="12" font-family="Verdana" font-size="7pt" font-weight="400" font-style="normal"   >tr|A0A6J3I7S9|A0A6J3I7S9_SAPAP|9515</text> </g>                    <g fill="none" stroke="#000000" stroke-opacity="1" stroke-width="1" stroke-linecap="butt" stroke-linejoin="bevel" transform="matrix(1,0,0,1,4,57)" font-family="MS Shell Dlg 2" font-size="7.8" font-weight="400" font-style="normal"  > <polyline fill="none" vector-effect="non-scaling-stroke" points="0,7 42.2505,7 " /> </g>      <g fill="#424874" fill-opacity="1" stroke="#424874" stroke-opacity="1" stroke-width="1" stroke-linecap="square" stroke-linejoin="bevel" transform="matrix(1,0,0,1,46.2505,62.5)" font-family="MS Shell Dlg 2" font-size="7.8" font-weight="400" font-style="normal"  > <circle cx="1.5" cy="1.5" r="1.5"/> </g>          <g fill="none" stroke="#000000" stroke-opacity="1" stroke-width="1" stroke-linecap="square" stroke-linejoin="bevel" transform="matrix(1,0,0,1,49.2505,57)" font-family="Verdana" font-size="7pt" font-weight="400" font-style="normal"  > <text fill="#000000" fill-opacity="1" stroke="none" xml:space="preserve" x="0" y="12" font-family="Verdana" font-size="7pt" font-weight="400" font-style="normal"   >tr|H2R7T7|H2R7T7_PANTR|9598</text> </g>                                                  <g fill="none" stroke="#000000" stroke-opacity="1" stroke-width="1" stroke-linecap="square" stroke-linejoin="bevel" transform="matrix(1,0,0,1,1,72)" font-family="MS Shell Dlg 2" font-size="7.8" font-weight="400" font-style="normal"  > <polyline fill="none" vector-effect="none" points="0,5 50,5 " /> </g>      <g fill="none" stroke="#000000" stroke-opacity="1" stroke-width="1" stroke-linecap="square" stroke-linejoin="bevel" transform="matrix(1,0,0,1,1,72)" font-family="MS Shell Dlg 2" font-size="7.8" font-weight="400" font-style="normal"  > <polyline fill="none" vector-effect="none" points="0,0 0,10 " /> </g>      <g fill="none" stroke="#000000" stroke-opacity="1" stroke-width="1" stroke-linecap="square" stroke-linejoin="bevel" transform="matrix(1,0,0,1,1,72)" font-family="MS Shell Dlg 2" font-size="7.8" font-weight="400" font-style="normal"  > <polyline fill="none" vector-effect="none" points="50,0 50,10 " /> </g>      <g fill="none" stroke="#000000" stroke-opacity="1" stroke-width="1" stroke-linecap="square" stroke-linejoin="bevel" transform="matrix(1,0,0,1,1,82)" font-family="MS Shell Dlg 2" font-size="7.8" font-weight="400" font-style="normal"  > <text fill="#000000" fill-opacity="1" stroke="none" xml:space="preserve" x="0" y="13" font-family="MS Shell Dlg 2" font-size="7.8" font-weight="400" font-style="normal"   >0.0374451</text> </g>     </g> </svg> 