<?xml version="1.0" encoding="UTF-8" standalone="no"?> <svg width="139.347mm" height="38.1mm"  viewBox="0 0 396 108"  xmlns="http://www.w3.org/2000/svg" xmlns:xlink="http://www.w3.org/1999/xlink"  version="1.2" baseProfile="tiny"> <title>Generated with ETE http://etetoolkit.org</title> <desc>Generated with ETE http://etetoolkit.org</desc> <defs> </defs> <g fill="none" stroke="black" stroke-width="1" fill-rule="evenodd" stroke-linecap="square" stroke-linejoin="bevel" >      <g fill="none" stroke="none" transform="matrix(1,0,0,1,0,0)" font-family="MS Shell Dlg 2" font-size="7.8" font-weight="400" font-style="normal"  > <rect x="0" y="0" width="396" height="108"/> </g>      <g fill="none" stroke="none" transform="matrix(1,0,0,1,1,1)" font-family="MS Shell Dlg 2" font-size="7.8" font-weight="400" font-style="normal"  > <rect x="0" y="0" width="394" height="56"/> </g>                                  <g fill="none" stroke="#000000" stroke-opacity="1" stroke-width="1" stroke-linecap="butt" stroke-linejoin="bevel" transform="matrix(1,0,0,1,1,1)" font-family="MS Shell Dlg 2" font-size="7.8" font-weight="400" font-style="normal"  > <polyline fill="none" vector-effect="non-scaling-stroke" points="3,17.5 3,49 " /> </g>                  <g fill="#424874" fill-opacity="1" stroke="#424874" stroke-opacity="1" stroke-width="1" stroke-linecap="square" stroke-linejoin="bevel" transform="matrix(1,0,0,1,1,32.75)" font-family="MS Shell Dlg 2" font-size="7.8" font-weight="400" font-style="normal"  > <circle cx="1.5" cy="1.5" r="1.5"/> </g>                  <g fill="none" stroke="#000000" stroke-opacity="1" stroke-width="1" stroke-linecap="butt" stroke-linejoin="bevel" transform="matrix(1,0,0,1,4,1)" font-family="MS Shell Dlg 2" font-size="7.8" font-weight="400" font-style="normal"  > <polyline fill="none" vector-effect="non-scaling-stroke" points="15.4725,7 15.4725,28 " /> </g>            <g fill="none" stroke="#000000" stroke-opacity="1" stroke-width="1" stroke-linecap="butt" stroke-linejoin="bevel" transform="matrix(1,0,0,1,4,1)" font-family="MS Shell Dlg 2" font-size="7.8" font-weight="400" font-style="normal"  > <polyline fill="none" vector-effect="non-scaling-stroke" points="0,17.5 12.4725,17.5 " /> </g>      <g fill="#424874" fill-opacity="1" stroke="#424874" stroke-opacity="1" stroke-width="1" stroke-linecap="square" stroke-linejoin="bevel" transform="matrix(1,0,0,1,16.4725,17)" font-family="MS Shell Dlg 2" font-size="7.8" font-weight="400" font-style="normal"  > <circle cx="1.5" cy="1.5" r="1.5"/> </g>                        <g fill="none" stroke="#000000" stroke-opacity="1" stroke-width="1" stroke-linecap="butt" stroke-linejoin="bevel" transform="matrix(1,0,0,1,19.4725,1)" font-family="MS Shell Dlg 2" font-size="7.8" font-weight="400" font-style="normal"  > <polyline fill="none" vector-effect="non-scaling-stroke" points="0,7 23.709,7 " /> </g>      <g fill="#424874" fill-opacity="1" stroke="#424874" stroke-opacity="1" stroke-width="1" stroke-linecap="square" stroke-linejoin="bevel" transform="matrix(1,0,0,1,43.1815,6.5)" font-family="MS Shell Dlg 2" font-size="7.8" font-weight="400" font-style="normal"  > <circle cx="1.5" cy="1.5" r="1.5"/> </g>          <g fill="none" stroke="#000000" stroke-opacity="1" stroke-width="1" stroke-linecap="square" stroke-linejoin="bevel" transform="matrix(1,0,0,1,46.1815,1)" font-family="Verdana" font-size="7pt" font-weight="400" font-style="normal"  > <text fill="#000000" fill-opacity="1" stroke="none" xml:space="preserve" x="0" y="12" font-family="Verdana" font-size="7pt" font-weight="400" font-style="normal"   >sp|P59542|T2R19_HUMAN|9606</text> </g>              <g fill="none" stroke="#000000" stroke-opacity="1" stroke-width="1" stroke-linecap="butt" stroke-linejoin="bevel" transform="matrix(1,0,0,1,19.4725,15)" font-family="MS Shell Dlg 2" font-size="7.8" font-weight="400" font-style="normal"  > <polyline fill="none" vector-effect="non-scaling-stroke" points="16.3996,7 16.3996,21 " /> </g>            <g fill="none" stroke="#000000" stroke-opacity="1" stroke-width="1" stroke-linecap="butt" stroke-linejoin="bevel" transform="matrix(1,0,0,1,19.4725,15)" font-family="MS Shell Dlg 2" font-size="7.8" font-weight="400" font-style="normal"  > <polyline fill="none" vector-effect="non-scaling-stroke" points="0,14 13.3996,14 " /> </g>      <g fill="#424874" fill-opacity="1" stroke="#424874" stroke-opacity="1" stroke-width="1" stroke-linecap="square" stroke-linejoin="bevel" transform="matrix(1,0,0,1,32.8721,27.5)" font-family="MS Shell Dlg 2" font-size="7.8" font-weight="400" font-style="normal"  > <circle cx="1.5" cy="1.5" r="1.5"/> </g>                        <g fill="none" stroke="#000000" stroke-opacity="1" stroke-width="1" stroke-linecap="butt" stroke-linejoin="bevel" transform="matrix(1,0,0,1,35.8721,15)" font-family="MS Shell Dlg 2" font-size="7.8" font-weight="400" font-style="normal"  > <polyline fill="none" vector-effect="non-scaling-stroke" points="0,7 5.35983,7 " /> </g>      <g fill="#424874" fill-opacity="1" stroke="#424874" stroke-opacity="1" stroke-width="1" stroke-linecap="square" stroke-linejoin="bevel" transform="matrix(1,0,0,1,41.2319,20.5)" font-family="MS Shell Dlg 2" font-size="7.8" font-weight="400" font-style="normal"  > <circle cx="1.5" cy="1.5" r="1.5"/> </g>          <g fill="none" stroke="#000000" stroke-opacity="1" stroke-width="1" stroke-linecap="square" stroke-linejoin="bevel" transform="matrix(1,0,0,1,44.2319,15)" font-family="Verdana" font-size="7pt" font-weight="400" font-style="normal"  > <text fill="#000000" fill-opacity="1" stroke="none" xml:space="preserve" x="0" y="12" font-family="Verdana" font-size="7pt" font-weight="400" font-style="normal"   >sp|Q645Z9|T2R19_GORGO|9595</text> </g>                    <g fill="none" stroke="#000000" stroke-opacity="1" stroke-width="1" stroke-linecap="butt" stroke-linejoin="bevel" transform="matrix(1,0,0,1,35.8721,29)" font-family="MS Shell Dlg 2" font-size="7.8" font-weight="400" font-style="normal"  > <polyline fill="none" vector-effect="non-scaling-stroke" points="0,7 154.128,7 " /> </g>      <g fill="#424874" fill-opacity="1" stroke="#424874" stroke-opacity="1" stroke-width="1" stroke-linecap="square" stroke-linejoin="bevel" transform="matrix(1,0,0,1,190,34.5)" font-family="MS Shell Dlg 2" font-size="7.8" font-weight="400" font-style="normal"  > <circle cx="1.5" cy="1.5" r="1.5"/> </g>          <g fill="none" stroke="#000000" stroke-opacity="1" stroke-width="1" stroke-linecap="square" stroke-linejoin="bevel" transform="matrix(1,0,0,1,193,29)" font-family="Verdana" font-size="7pt" font-weight="400" font-style="normal"  > <text fill="#000000" fill-opacity="1" stroke="none" xml:space="preserve" x="0" y="12" font-family="Verdana" font-size="7pt" font-weight="400" font-style="normal"   >tr|H2NJ88|H2NJ88_PONAB|9601</text> </g>                    <g fill="none" stroke="#000000" stroke-opacity="1" stroke-width="1" stroke-linecap="butt" stroke-linejoin="bevel" transform="matrix(1,0,0,1,4,43)" font-family="MS Shell Dlg 2" font-size="7.8" font-weight="400" font-style="normal"  > <polyline fill="none" vector-effect="non-scaling-stroke" points="0,7 12.4725,7 " /> </g>      <g fill="#424874" fill-opacity="1" stroke="#424874" stroke-opacity="1" stroke-width="1" stroke-linecap="square" stroke-linejoin="bevel" transform="matrix(1,0,0,1,16.4725,48.5)" font-family="MS Shell Dlg 2" font-size="7.8" font-weight="400" font-style="normal"  > <circle cx="1.5" cy="1.5" r="1.5"/> </g>          <g fill="none" stroke="#000000" stroke-opacity="1" stroke-width="1" stroke-linecap="square" stroke-linejoin="bevel" transform="matrix(1,0,0,1,19.4725,43)" font-family="Verdana" font-size="7pt" font-weight="400" font-style="normal"  > <text fill="#000000" fill-opacity="1" stroke="none" xml:space="preserve" x="0" y="12" font-family="Verdana" font-size="7pt" font-weight="400" font-style="normal"   >sp|Q5Y4Z5|T2R19_PANPA|9597</text> </g>                                          <g fill="none" stroke="#000000" stroke-opacity="1" stroke-width="1" stroke-linecap="square" stroke-linejoin="bevel" transform="matrix(1,0,0,1,1,58)" font-family="MS Shell Dlg 2" font-size="7.8" font-weight="400" font-style="normal"  > <polyline fill="none" vector-effect="none" points="0,5 50,5 " /> </g>      <g fill="none" stroke="#000000" stroke-opacity="1" stroke-width="1" stroke-linecap="square" stroke-linejoin="bevel" transform="matrix(1,0,0,1,1,58)" font-family="MS Shell Dlg 2" font-size="7.8" font-weight="400" font-style="normal"  > <polyline fill="none" vector-effect="none" points="0,0 0,10 " /> </g>      <g fill="none" stroke="#000000" stroke-opacity="1" stroke-width="1" stroke-linecap="square" stroke-linejoin="bevel" transform="matrix(1,0,0,1,1,58)" font-family="MS Shell Dlg 2" font-size="7.8" font-weight="400" font-style="normal"  > <polyline fill="none" vector-effect="none" points="50,0 50,10 " /> </g>      <g fill="none" stroke="#000000" stroke-opacity="1" stroke-width="1" stroke-linecap="square" stroke-linejoin="bevel" transform="matrix(1,0,0,1,1,68)" font-family="MS Shell Dlg 2" font-size="7.8" font-weight="400" font-style="normal"  > <text fill="#000000" fill-opacity="1" stroke="none" xml:space="preserve" x="0" y="13" font-family="MS Shell Dlg 2" font-size="7.8" font-weight="400" font-style="normal"   >0.0281539</text> </g>     </g> </svg> 